<?xml version="1.0" standalone="no"?>
<!DOCTYPE svg PUBLIC "-//W3C//DTD SVG 20010904//EN"
 "http://www.w3.org/TR/2001/REC-SVG-20010904/DTD/svg10.dtd">
<svg version="1.0" xmlns="http://www.w3.org/2000/svg"
 width="128.000000pt" height="128.000000pt" viewBox="0 0 128.000000 128.000000"
 preserveAspectRatio="xMidYMid meet">

<g transform="translate(0.000000,128.000000) scale(0.100000,-0.100000)"
fill="#000000" stroke="none">
<path d="M0 640 l0 -640 640 0 640 0 0 640 0 640 -640 0 -640 0 0 -640z m569
321 c17 -16 31 -38 31 -48 0 -11 -20 -48 -45 -84 l-46 -64 31 -3 c26 -3 38 5
78 47 l48 51 158 0 158 0 -26 -34 c-30 -40 -32 -46 -11 -46 12 0 10 -8 -10
-37 -21 -31 -23 -39 -10 -41 18 -4 19 -14 3 -30 -9 -9 21 -12 135 -12 91 0
147 -4 147 -10 0 -7 -182 -10 -525 -10 -343 0 -525 3 -525 10 0 6 38 10 95 10
80 0 93 2 89 15 -8 20 13 51 105 154 78 88 78 90 -1 33 -49 -35 -76 -36 -58
-2 5 10 10 27 10 37 0 23 86 93 115 93 13 0 37 -13 54 -29z m-224 -367 c18
-19 14 -41 -6 -35 -8 1 -40 5 -73 9 -47 4 -58 2 -54 -9 3 -10 27 -16 74 -19
l69 -5 3 -33 c5 -52 -10 -62 -97 -62 -76 0 -101 9 -101 37 0 10 17 11 75 6 53
-4 75 -3 75 5 0 14 -28 21 -95 24 l-50 3 -3 38 c-3 31 1 39 20 46 40 17 145
13 163 -5z m117 -46 c25 -60 27 -62 36 -38 38 97 41 101 68 98 22 -2 30 -13
49 -63 l23 -60 27 63 c25 56 31 62 57 62 16 0 28 -3 26 -7 -2 -5 -20 -43 -41
-86 -35 -76 -37 -78 -69 -75 -28 3 -34 9 -53 57 l-22 53 -23 -56 c-20 -50 -26
-56 -51 -56 -26 0 -33 8 -69 80 -22 44 -40 82 -40 85 0 3 13 5 28 5 25 0 31
-7 54 -62z m450 -18 c20 -41 37 -78 37 -82 2 -15 -57 -8 -63 7 -4 11 -20 15
-55 15 -34 0 -51 -4 -55 -15 -3 -9 -18 -15 -36 -15 l-30 0 43 85 42 86 40 -3
c39 -3 41 -5 77 -78z m195 18 l48 -63 3 63 c3 59 5 63 25 60 20 -3 22 -9 25
-85 l3 -83 -45 0 c-42 0 -46 2 -90 62 l-46 62 0 -62 c0 -59 -1 -62 -25 -62
-25 0 -25 1 -25 85 l0 85 39 0 c37 0 43 -5 88 -62z m56 -203 l-38 -55 -522 0
-522 0 37 55 37 54 523 1 523 0 -38 -55z"/>
<path d="M460 940 c-21 -18 -29 -30 -20 -30 12 -1 11 -4 -4 -15 -38 -29 -10
-24 36 6 43 28 68 31 68 9 0 -5 -28 -39 -63 -77 -34 -37 -75 -85 -91 -105 -51
-68 -50 -68 248 -68 166 0 267 4 271 10 4 6 -17 10 -54 10 -34 0 -61 4 -61 10
0 6 22 10 49 10 28 0 53 5 56 10 4 6 -20 10 -64 10 -41 0 -71 4 -71 10 0 6 33
10 80 10 47 0 80 4 80 10 0 6 -39 10 -96 10 -61 0 -93 4 -89 10 3 6 44 10 91
10 49 0 84 4 84 10 0 6 -40 10 -100 10 -60 0 -100 4 -100 10 0 6 43 10 109 10
63 0 112 4 116 10 7 11 -242 15 -270 4 -8 -4 -29 -26 -46 -50 -30 -44 -30 -44
-90 -44 l-60 0 55 79 c31 43 56 85 56 93 0 21 -43 58 -66 58 -10 0 -35 -14
-54 -30z"/>
<path d="M816 538 c-9 -35 -8 -38 19 -38 29 0 29 0 13 35 -14 31 -24 32 -32 3z"/>
</g>
</svg>
